<?xml version="1.0" encoding="utf-8"?>
<!-- Generator: Adobe Illustrator 19.1.0, SVG Export Plug-In . SVG Version: 6.00 Build 0)  -->
<!DOCTYPE svg PUBLIC "-//W3C//DTD SVG 1.1//EN" "http://www.w3.org/Graphics/SVG/1.1/DTD/svg11.dtd">
<svg version="1.1" id="Layer_1" xmlns="http://www.w3.org/2000/svg" xmlns:xlink="http://www.w3.org/1999/xlink" x="0px" y="0px"
	 viewBox="0 0 58 58" style="enable-background:new 0 0 58 58;" xml:space="preserve">
<style type="text/css">
	.st0{fill:#FFFFFF;}
</style>
<path class="st0" d="M46.7,22.3c0.4,0.4,0.4,1,0,1.4l-17,17C29.5,40.9,29.3,41,29,41c-0.3,0-0.5-0.1-0.7-0.3l-17-17
	c-0.4-0.4-0.4-1,0-1.4c0.4-0.4,1-0.4,1.4,0L29,38.6l16.3-16.3C45.7,21.9,46.3,21.9,46.7,22.3z M58,29c0,16-13,29-29,29S0,45,0,29
	S13,0,29,0S58,13,58,29z M56,29C56,14.1,43.9,2,29,2C14.1,2,2,14.1,2,29s12.1,27,27,27C43.9,56,56,43.9,56,29z"/>
</svg>
