<?xml version="1.0" encoding="iso-8859-1"?>
<!-- Generator: Adobe Illustrator 19.1.0, SVG Export Plug-In . SVG Version: 6.00 Build 0)  -->
<!DOCTYPE svg PUBLIC "-//W3C//DTD SVG 1.1//EN" "http://www.w3.org/Graphics/SVG/1.1/DTD/svg11.dtd">
<svg version="1.1" id="Layer_1" xmlns="http://www.w3.org/2000/svg" xmlns:xlink="http://www.w3.org/1999/xlink" x="0px" y="0px"
	 viewBox="0 0 317.784 65.467" style="enable-background:new 0 0 317.784 65.467;" xml:space="preserve">
<path fill="#ffffff" d="M256.518,38.419l27.02-19.898v43.988L256.518,38.419z M209.678,39.698V22.535h2.614c11.203,0,16.775,2.809,16.775,8.357
	c0,4.021-2.496,6.637-7.491,7.845C219.081,39.375,215.132,39.698,209.678,39.698 M146.924,55.326
	c-4.991,3.061-10.449,4.595-16.426,4.595c-4.237,0-8.242-0.768-11.957-2.233c-4.238-1.658-7.546-4.084-10.042-7.339
	c-2.263-2.996-3.425-6.124-3.425-9.503c0-3.383,1.162-6.573,3.425-9.571c2.496-3.254,5.804-5.675,9.983-7.336
	c3.715-1.467,7.721-2.233,12.016-2.233c5.977,0,11.491,1.531,16.484,4.53c5.978,3.635,8.939,8.549,8.939,14.61
	C155.921,46.903,152.902,51.692,146.924,55.326 M85.596,38.737c-2.497,0.638-6.444,0.961-11.901,0.961V22.535h2.615
	c11.203,0,16.773,2.809,16.773,8.357C93.083,34.913,90.588,37.529,85.596,38.737 M49.686,55.326
	c-4.99,3.061-10.449,4.595-16.425,4.595c-4.239,0-8.244-0.768-11.959-2.233c-4.237-1.658-7.545-4.084-10.042-7.339
	c-2.263-2.996-3.424-6.124-3.424-9.503c0-3.383,1.161-6.573,3.424-9.571c2.497-3.254,5.805-5.675,9.985-7.336
	c3.715-1.467,7.72-2.233,12.016-2.233c5.976,0,11.491,1.531,16.482,4.53c5.98,3.635,8.939,8.549,8.939,14.61
	C58.682,46.903,55.664,51.692,49.686,55.326 M317.784,22.663v-5.359h-32.593h-1.653h-8.736l-27.048,20.414V17.304H239.8v45.542
	l-18.568-18.939c3.599,0,6.964-1.212,10.099-3.699c3.424-2.679,5.166-5.935,5.166-9.697c0-2.296-0.639-4.336-1.916-6.124
	c-2.15-3.001-5.398-4.977-9.868-6.063c-2.847-0.703-6.675-1.02-11.555-1.02h-3.665h-7.768h-0.179v28.325
	c0,9.505-5.169,14.292-15.502,14.292c-5.514,0-9.402-1.406-11.783-4.148c-2.379-2.744-3.54-5.997-3.54-9.632V17.304h-7.894v17.443
	c-0.934-2.687-2.488-5.25-4.702-7.683c-3.307-3.634-7.543-6.377-12.827-8.229c-4.701-1.658-9.634-2.487-14.8-2.487
	c-5.516,0-10.738,0.956-15.671,2.868c-5.631,2.17-9.985,5.298-13.178,9.38c-0.414,0.527-0.791,1.061-1.146,1.6
	c-0.056-2.167-0.686-4.104-1.904-5.809c-2.15-3.001-5.397-4.977-9.868-6.063c-2.845-0.703-6.674-1.02-11.553-1.02H65.746v17.878
	c-0.913-2.847-2.525-5.554-4.859-8.118c-3.308-3.634-7.543-6.377-12.826-8.229c-4.702-1.658-9.633-2.487-14.8-2.487
	c-5.516,0-10.74,0.956-15.673,2.868c-5.63,2.17-9.985,5.298-13.176,9.38C1.451,32.359,0,36.444,0,40.846s1.509,8.484,4.471,12.311
	c3.192,4.081,7.544,7.209,13.117,9.442c4.933,1.912,10.157,2.868,15.673,2.868c6.093,0,11.667-1.083,16.658-3.316
	c4.7-2.105,8.473-4.783,11.433-8.038c2.097-2.339,3.547-4.84,4.394-7.507v17.842h7.949V44.545h3.309L95.87,64.448h9.518
	L85.25,43.907c3.597,0,6.963-1.212,10.099-3.699c0.784-0.614,1.47-1.262,2.077-1.936c-0.114,0.847-0.188,1.703-0.188,2.574
	c0,4.402,1.51,8.484,4.47,12.311c3.192,4.081,7.547,7.209,13.119,9.442c4.933,1.912,10.155,2.868,15.671,2.868
	c6.095,0,11.667-1.083,16.659-3.316c4.701-2.105,8.474-4.783,11.433-8.038c1.977-2.204,3.372-4.554,4.237-7.05v0.478
	c0,2.745,0.812,5.551,2.495,8.422c1.918,3.256,4.993,5.741,9.23,7.464c3.482,1.34,7.314,2.04,11.492,2.04
	c5.98,0,11.145-1.401,15.502-4.145c5.278-3.316,7.947-8.036,7.947-14.099v-2.678h3.497l18.862,19.903h7.948h1.572h6.382V44.8
	l3.135-2.36l24.087,22.008h8.562h2.175h32.071V59.09H291.49V41.228h25.6v-5.359h-25.6V22.663H317.784z"/>
<path fill="#ffffff" d="M31.676,0l5.086,10.318c0,0,12.611-0.769,24.536,10.994C57.677,14.049,46.746,0.411,31.676,0"/>
</svg>
